<?xml version="1.0" encoding="utf-8"?>
<!-- Generator: Adobe Illustrator 21.0.2, SVG Export Plug-In . SVG Version: 6.00 Build 0)  -->
<svg version="1.1" id="Layer_1" xmlns="http://www.w3.org/2000/svg" xmlns:xlink="http://www.w3.org/1999/xlink" x="0px" y="0px"
	 viewBox="0 0 31 31" style="enable-background:new 0 0 31 31;" xml:space="preserve">
<style type="text/css">
	.st0{filter:url(#a-modal-close);}
	.st1{fill:#F7F7F7;}
	.st2{fill:#7A0003;}
</style>
<filter  filterUnits="objectBoundingBox" height="128%" id="a-modal-close" width="128%" x="-14%">
	<feOffset  dy="1" in="SourceAlpha" result="shadowOffsetOuter1"></feOffset>
	<feGaussianBlur  in="shadowOffsetOuter1" result="shadowBlurOuter1" stdDeviation="1"></feGaussianBlur>
	<feColorMatrix  in="shadowBlurOuter1" values="0 0 0 0 0 0 0 0 0 0 0 0 0 0 0 0 0 0 0.25 0"></feColorMatrix>
</filter>
<g>
	<g class="st0">
		<circle id="b-modal-close_2_" cx="15.5" cy="15.5" r="12.5"/>
	</g>
	<g>
		<circle id="b-modal-close_1_" class="st1" cx="15.5" cy="15.5" r="12.5"/>
	</g>
	<path class="st2" d="M15.5,14.2l2.9-2.9c0.3-0.4,0.9-0.5,1.3-0.2s0.5,0.9,0.2,1.3c-0.1,0.1-0.1,0.1-0.2,0.2l-2.9,2.9l2.9,2.9
		c0.4,0.3,0.5,0.9,0.2,1.3s-0.9,0.5-1.3,0.2c-0.1-0.1-0.1-0.1-0.2-0.2l-2.9-2.9l-2.9,2.9c-0.3,0.4-0.9,0.5-1.3,0.2s-0.5-0.9-0.2-1.3
		c0.1-0.1,0.1-0.1,0.2-0.2l2.9-2.9l-2.9-2.9c-0.4-0.3-0.5-0.9-0.2-1.3s0.9-0.5,1.3-0.2c0.1,0.1,0.1,0.1,0.2,0.2
		C12.6,11.3,15.5,14.2,15.5,14.2z"/>
</g>
</svg>
